<?xml version="1.0" encoding="UTF-8" standalone="no"?>
<svg
   xmlns:dc="http://purl.org/dc/elements/1.1/"
   xmlns:cc="http://creativecommons.org/ns#"
   xmlns:rdf="http://www.w3.org/1999/02/22-rdf-syntax-ns#"
   xmlns:svg="http://www.w3.org/2000/svg"
   xmlns="http://www.w3.org/2000/svg"
   xmlns:sodipodi="http://sodipodi.sourceforge.net/DTD/sodipodi-0.dtd"
   xmlns:inkscape="http://www.inkscape.org/namespaces/inkscape"
   width="210mm"
   height="297mm"
   viewBox="0 0 210 297"
   version="1.1"
   id="svg8"
   inkscape:version="1.0.2 (e86c870879, 2021-01-15)"
   sodipodi:docname="logo.svg">
  <defs
     id="defs2" />
  <sodipodi:namedview
     id="base"
     pagecolor="#ffffff"
     bordercolor="#666666"
     borderopacity="1.0"
     inkscape:pageopacity="0.0"
     inkscape:pageshadow="2"
     inkscape:zoom="0.35"
     inkscape:cx="-3930.6151"
     inkscape:cy="696.53187"
     inkscape:document-units="mm"
     inkscape:current-layer="layer1"
     inkscape:document-rotation="0"
     showgrid="false"
     showborder="false"
     inkscape:window-width="1912"
     inkscape:window-height="1008"
     inkscape:window-x="4"
     inkscape:window-y="31"
     inkscape:window-maximized="0"
     inkscape:snap-global="true"
     showguides="true"
     inkscape:guide-bbox="true"
     inkscape:snap-bbox="true"
     inkscape:bbox-nodes="true"
     inkscape:snap-bbox-edge-midpoints="true"
     inkscape:snap-intersection-paths="true"
     inkscape:snap-smooth-nodes="true" />
  <metadata
     id="metadata5">
    <rdf:RDF>
      <cc:Work
         rdf:about="">
        <dc:format>image/svg+xml</dc:format>
        <dc:type
           rdf:resource="http://purl.org/dc/dcmitype/StillImage" />
        <dc:title></dc:title>
      </cc:Work>
    </rdf:RDF>
  </metadata>
  <g
     inkscape:label="Layer 1"
     inkscape:groupmode="layer"
     id="layer1">
    <rect
       style="fill:#6d6875;fill-opacity:1;stroke-width:0.381543"
       id="rect855"
       width="848.56744"
       height="429.45737"
       x="-329.90332"
       y="-151.41988"
       rx="14.032915"
       ry="9.4840612"
       sodipodi:insensitive="true" />
    <path
       id="path885"
       style="fill:#ffb4a2;fill-opacity:1;stroke-width:0.264583"
       d="m -726.39073,114.69021 c -4.432,0 -8.00002,3.56803 -8.00002,8.00003 v 132.27099 c 0,4.432 3.56802,8.00003 8.00002,8.00003 h 132.271 c 4.432,0 8.00003,-3.56803 8.00003,-8.00003 V 122.69024 c 0,-4.432 -3.56803,-8.00003 -8.00003,-8.00003 z m 109.7039,37.80544 -53.3864,73.7371 -6.91069,-33.82015 -31.37431,-14.90814 z"
       inkscape:export-xdpi="79.103325"
       inkscape:export-ydpi="79.103325" />
    <rect
       style="fill:#ffb4a2;fill-opacity:1;stroke-width:0.264583"
       id="rect857"
       width="148.27113"
       height="148.27113"
       x="228.27989"
       y="-45.794369"
       rx="8"
       ry="8" />
    <rect
       style="fill:#e5989b;fill-opacity:1;stroke-width:0.264583"
       id="rect859"
       width="148.27113"
       height="148.27113"
       x="233.89752"
       y="-50.636181"
       rx="8"
       ry="8" />
    <path
       id="rect835"
       style="fill:#b5838d;fill-opacity:1;stroke-width:0.264583"
       d="m 250.4067,-57.032228 c -4.432,0 -8.00003,3.568028 -8.00003,8.000028 V 83.238794 c 0,4.432001 3.56803,8.000029 8.00003,8.000029 h 132.27099 c 4.432,0 8.00003,-3.568028 8.00003,-8.000029 V -49.0322 c 0,-4.432 -3.56803,-8.000028 -8.00003,-8.000028 z M 360.1106,-19.226784 306.72419,54.510315 299.8135,20.690157 268.43919,5.7820242 Z" />
    <rect
       style="fill:#ffb4a2;fill-opacity:1;stroke-width:0.264583"
       id="rect870"
       width="148.27113"
       height="148.27113"
       x="-607.73151"
       y="-112.88032"
       rx="8"
       ry="8" />
    <rect
       style="fill:#e5989b;fill-opacity:1;stroke-width:0.264583"
       id="rect872"
       width="148.27113"
       height="148.27113"
       x="-602.11383"
       y="-117.72213"
       rx="8"
       ry="8" />
    <rect
       style="fill:#b5838d;fill-opacity:1;stroke-width:0.264583"
       id="rect874"
       width="148.27113"
       height="148.27113"
       x="-593.60468"
       y="-124.11822"
       rx="8"
       ry="8" />
    <path
       id="path876"
       style="fill:#ffb4a2;fill-opacity:1;stroke-width:0.135549"
       inkscape:transform-center-x="-8.9158984"
       inkscape:transform-center-y="-2.4875962"
       d="m -475.90076,-86.312798 -53.38669,73.736964 -6.91041,-33.820204 -31.37454,-14.907882 z"
       sodipodi:nodetypes="ccccc" />
    <path
       id="path881"
       style="fill:#e5989b;fill-opacity:1;stroke-width:0.264583"
       d="m -734.52233,122.50942 c -4.432,0 -8.00003,3.56803 -8.00003,8.00003 v 132.27099 c 0,4.432 3.56803,8.00003 8.00003,8.00003 h 132.27099 c 4.432,0 8.00003,-3.56803 8.00003,-8.00003 V 130.50945 c 0,-4.432 -3.56803,-8.00003 -8.00003,-8.00003 z m 109.7039,37.80544 -53.38641,73.7371 -6.91069,-33.82016 -31.37431,-14.90813 z"
       inkscape:export-xdpi="79.103325"
       inkscape:export-ydpi="79.103325" />
    <path
       id="path887"
       style="fill:#b5838d;fill-opacity:1;stroke-width:0.264583"
       d="m -742.52236,130.50945 c -4.432,0 -8.00003,3.56803 -8.00003,8.00003 v 132.27099 c 0,4.432 3.56803,8.00003 8.00003,8.00003 h 132.27099 c 4.432,0 8.00003,-3.56803 8.00003,-8.00003 V 138.50948 c 0,-4.432 -3.56803,-8.00003 -8.00003,-8.00003 z m 109.7039,37.80544 -53.38641,73.7371 -6.91069,-33.82016 -31.37431,-14.90813 z"
       inkscape:export-xdpi="79.103325"
       inkscape:export-ydpi="79.103325" />
    <path
       id="path889"
       style="fill:#ffb4a2;fill-opacity:1;stroke-width:0.264583"
       d="m -1164.7128,68.362288 c -4.432,0 -8,3.56803 -8,8.00003 V 208.63331 c 0,4.432 3.568,8.00003 8,8.00003 h 132.271 c 4.432,0 8,-3.56803 8,-8.00003 V 76.362318 c 0,-4.432 -3.568,-8.00003 -8,-8.00003 z m 109.7039,37.805442 -53.3864,73.7371 -6.9107,-33.82015 -31.3743,-14.90814 z"
       inkscape:export-xdpi="79.103325"
       inkscape:export-ydpi="79.103325" />
    <path
       id="path891"
       style="fill:#e5989b;fill-opacity:1;stroke-width:0.264583"
       d="m -1172.8444,76.181498 c -4.432,0 -8,3.56803 -8,8.00003 V 216.45252 c 0,4.432 3.568,8.00003 8,8.00003 h 132.271 c 4.432,0 8,-3.56803 8,-8.00003 V 84.181528 c 0,-4.432 -3.568,-8.00003 -8,-8.00003 z m 109.7039,37.805442 -53.3864,73.7371 -6.9107,-33.82016 -31.3743,-14.90813 z"
       inkscape:export-xdpi="79.103325"
       inkscape:export-ydpi="79.103325" />
    <path
       id="path893"
       style="fill:#b5838d;fill-opacity:1;stroke-width:0.264583"
       d="m -1180.8444,84.181528 c -4.432,0 -8.0001,3.56803 -8.0001,8.00003 V 224.45255 c 0,4.432 3.5681,8.00003 8.0001,8.00003 h 132.2709 c 4.432,0 8.0001,-3.56803 8.0001,-8.00003 V 92.181558 c 0,-4.432 -3.5681,-8.00003 -8.0001,-8.00003 z m 109.7039,37.805442 -53.3865,73.7371 -6.9106,-33.82016 -31.3744,-14.90813 z"
       inkscape:export-xdpi="79.103325"
       inkscape:export-ydpi="79.103325" />
    <path
       id="path912"
       style="fill:#e5989b;fill-opacity:1;stroke:none;stroke-width:0.512311"
       inkscape:transform-center-x="-8.9158984"
       inkscape:transform-center-y="-2.4875962"
       d="M -3577.7441 424.01758 L -3696.4141 456.39258 L -3577.834 512.73633 L -3551.7148 640.56055 L -3494.6367 561.72461 L -3516.8633 452.94727 L -3577.7441 424.01758 z "
       transform="scale(0.26458333)"
       inkscape:export-xdpi="141.92107"
       inkscape:export-ydpi="141.92107" />
    <path
       id="path904"
       style="fill:#ffb4a2;fill-opacity:1;stroke:none;stroke-width:0.424135"
       inkscape:transform-center-x="-7.3813669"
       inkscape:transform-center-y="-2.059427"
       d="M -3577.7461 424.01758 L -3636.7812 440.12305 L -3547.5977 482.5 L -3523.3145 601.33594 L -3494.6367 561.72461 L -3516.8633 452.94727 L -3577.7461 424.01758 z "
       transform="scale(0.26458333)"
       inkscape:export-xdpi="141.92107"
       inkscape:export-ydpi="141.92107" />
    <path
       id="path914"
       style="fill:#ffffff;fill-opacity:1;stroke-width:0.0891233;stroke:none"
       inkscape:transform-center-x="-5.8622158"
       inkscape:transform-center-y="-1.6355746"
       d="m -886.33797,95.744878 -38.2846,52.878202 -5.8809,-28.78067 -16.1087,-7.65437 z"
       sodipodi:nodetypes="ccccc"
       inkscape:export-xdpi="141.92107"
       inkscape:export-ydpi="141.92107" />
  </g>
</svg>
